<svg xmlns="http://www.w3.org/2000/svg">
<defs>
<font
       id="CollegeSlabSC"
       horiz-adv-x="64">
      <font-face
         font-family="College Slab"
         font-weight="700"
         font-stretch="normal"
         units-per-em="100"
         panose-1="2 6 7 3 2 8 2 15 2 4"
         ascent="80"
         descent="-20"
         cap-height="68"
         bbox="2 -1 73 68"
         underline-thickness="8.88672"
         underline-position="-22.3633"
         stemh="14"
         stemv="14"
         unicode-range="U+0020-2310"
         id="font-face4" />
      <missing-glyph
         id="missing-glyph6" />
      <glyph
         glyph-name="zero"
         unicode="0"
         horiz-adv-x="51"
         d="M25 14h7v41h-13v-41h6zM16 0l-11 11v46l11 11h19l11 -11v-46l-11 -11h-19z"
         id="glyph8" />
      <glyph
         glyph-name="one"
         unicode="1"
         horiz-adv-x="36"
         d="M5 7v7h7v34h-7v10l7 10h14v-54h6v-14h-27v7z"
         id="glyph10" />
      <glyph
         glyph-name="two"
         unicode="2"
         horiz-adv-x="51"
         d="M5 17v13l11 11h16v14h-13v-7h-14v9l11 11h19l11 -11v-19l-11 -11h-16v-13h13v7h14v-21h-41v17z"
         id="glyph12" />
      <glyph
         glyph-name="three"
         unicode="3"
         horiz-adv-x="50"
         d="M4 52v5l11 11h19l11 -11v-19l-4 -4l4 -4v-19l-11 -11h-19l-11 11v10h14v-7h14v13h-7v14h7v14h-14v-7h-14v4z"
         id="glyph14" />
      <glyph
         glyph-name="four"
         unicode="4"
         horiz-adv-x="47"
         d="M16 7v7h6v7h-20v13l20 34h14v-34h7v-13h-7v-7h7v-14h-27v7zM20 34h2v10l-5 -10h3z"
         id="glyph16" />
      <glyph
         glyph-name="five"
         unicode="5"
         horiz-adv-x="51"
         d="M20 68h26v-13h-28v-14h17l11 -11v-19l-11 -11h-19l-11 11v10h13v-7h14v13h-16l-11 11v30h15z"
         id="glyph18" />
      <glyph
         glyph-name="six"
         unicode="6"
         horiz-adv-x="51"
         d="M40 48h-8v7h-13v-14h16l11 -11v-19l-11 -11h-19l-11 11v46l11 11h19l11 -11v-9h-6zM25 14h7v13h-13v-13h6z"
         id="glyph20" />
      <glyph
         glyph-name="seven"
         unicode="7"
         horiz-adv-x="50"
         d="M6 7v7h7l20 41h-13v-7h-14v20h41v-13l-21 -41h7v-14h-27v7z"
         id="glyph22" />
      <glyph
         glyph-name="eight"
         unicode="8"
         horiz-adv-x="51"
         d="M46 38l-4 -4l4 -4v-19l-11 -11h-19l-11 11v19l4 4l-4 4v19l11 11h19l11 -11v-19zM32 41v14h-13v-14h13zM32 14v13h-13v-13h13z"
         id="glyph24" />
      <glyph
         glyph-name="nine"
         unicode="9"
         horiz-adv-x="50"
         d="M11 21h7v-7h14v13h-17l-10 11v19l10 11h19l11 -11v-46l-11 -11h-19l-10 11v10h6zM26 55h-9v-14h15v14h-6z"
         id="glyph26" />
      <glyph
         glyph-name="A"
         unicode="A"
         horiz-adv-x="71"
         d="M40 34c-1 4 -2 8 -4 12l-4 -12h8zM29 68h14l17 -54h6v-14h-26v14h6l-2 7h-16l-2 -7h6v-14h-27v14h7z"
         id="glyph28" />
      <glyph
         glyph-name="B"
         unicode="B"
         horiz-adv-x="57"
         d="M5 14h7v41h-7v13h36l12 -11v-19l-7 -4l7 -4v-19l-12 -11h-36v14zM39 41v14h-14v-14h14zM39 14v13h-14v-13h14z"
         id="glyph30" />
      <glyph
         glyph-name="C"
         unicode="C"
         horiz-adv-x="50"
         d="M5 11v46l11 11h19l11 -11v-9h-14v7h-14v-41h14v7h14v-10l-11 -11h-19z"
         id="glyph32" />
      <glyph
         glyph-name="D"
         unicode="D"
         horiz-adv-x="57"
         d="M5 6v8h7v41h-7v13h36l12 -11v-46l-12 -11h-36v6zM30 14h9v41h-14v-41h5z"
         id="glyph34" />
      <glyph
         glyph-name="E"
         unicode="E"
         horiz-adv-x="57"
         d="M5 14h7v41h-7v13h48v-20h-14v7h-14v-14h14v-14h-14v-13h14v7h14v-21h-48v14z"
         id="glyph36" />
      <glyph
         glyph-name="F"
         unicode="F"
         horiz-adv-x="57"
         d="M5 7v7h7v41h-7v13h47v-20h-13v7h-14v-14h14v-14h-14v-13h7v-14h-27v7z"
         id="glyph38" />
      <glyph
         glyph-name="G"
         unicode="G"
         horiz-adv-x="50"
         d="M13 2l-8 9v46l11 11h19l11 -11v-9h-14v7h-13v-41h13v13h-7v14h21v-30l-11 -11h-19z"
         id="glyph40" />
      <glyph
         glyph-name="H"
         unicode="H"
         d="M5 14h7v41h-7v13h26v-13h-6v-14h14v14h-6v13h26v-13h-6v-41h6v-14h-26v14h6v13h-14v-13h6v-14h-26v14z"
         id="glyph42" />
      <glyph
         glyph-name="I"
         unicode="I"
         horiz-adv-x="36"
         d="M5 7v7h7v41h-7v13h26v-13h-6v-41h6v-14h-26v7z"
         id="glyph44" />
      <glyph
         glyph-name="J"
         unicode="J"
         horiz-adv-x="57"
         d="M19 18v-4h13v41h-7v13h28v-13h-7v-44l-11 -11h-19l-11 11v10h14v-3z"
         id="glyph46" />
      <glyph
         glyph-name="K"
         unicode="K"
         d="M5 14h7v41h-7v13h26v-13h-6v-19l14 19h-6v13h26v-13h-5l-16 -21l16 -20h5v-14h-26v14h5l-9 11l-4 -6v-5h6v-14h-26v14z"
         id="glyph48" />
      <glyph
         glyph-name="L"
         unicode="L"
         horiz-adv-x="57"
         d="M5 7v7h7v41h-7v13h27v-13h-7v-41h14v7h14v-21h-48v7z"
         id="glyph50" />
      <glyph
         glyph-name="M"
         unicode="M"
         horiz-adv-x="77"
         d="M5 14h7v41h-7v13h20l14 -33l14 33h19v-13h-7v-41h7v-14h-26v14h7v19l-13 -34l-15 34v-19h7v-14h-27v14z"
         id="glyph52" />
      <glyph
         glyph-name="N"
         unicode="N"
         horiz-adv-x="71"
         d="M5 14h7v41h-7v13h20l21 -39v26h-7v13h27v-13h-7v-55h-13l-21 39v-25h7v-14h-27v14z"
         id="glyph54" />
      <glyph
         glyph-name="O"
         unicode="O"
         horiz-adv-x="50"
         d="M5 11v46l11 11h19l11 -11v-46l-11 -11h-19zM32 14v41h-13v-41h13z"
         id="glyph56" />
      <glyph
         glyph-name="P"
         unicode="P"
         horiz-adv-x="57"
         d="M5 14h7v41h-7v13h36l12 -11v-19l-12 -11h-16v-13h7v-14h-27v14zM39 41v14h-14v-14h14z"
         id="glyph58" />
      <glyph
         glyph-name="Q"
         unicode="Q"
         horiz-adv-x="58"
         d="M25 27h7v28h-13v-41h6v13zM46 57v-34l7 -7v-16h-14l-2 2l-2 -2h-19l-11 11v46l11 11h19z"
         id="glyph60" />
      <glyph
         glyph-name="R"
         unicode="R"
         d="M5 14h7v41h-7v13h37l11 -11v-19l-4 -4l4 -4v-16h7v-14h-27v14h6v13h-13v-13h6v-14h-27v14zM39 41v14h-13v-14h13z"
         id="glyph62" />
      <glyph
         glyph-name="S"
         unicode="S"
         horiz-adv-x="50"
         d="M12 21h7v-7h13v13h-16l-11 11v19l11 11h19l11 -11v-9h-14v7h-13v-14h16l11 -11v-19l-11 -11h-19l-11 11v10h7z"
         id="glyph64" />
      <glyph
         glyph-name="T"
         unicode="T"
         d="M19 14h6v41h-6v-7h-14v20h55v-20h-14v7h-7v-41h7v-14h-27v14z"
         id="glyph66" />
      <glyph
         glyph-name="U"
         unicode="U"
         d="M15 68h16v-13h-6v-41h14v41h-6v13h26v-13h-6v-44l-11 -11h-19l-11 11v44h-7v13h10z"
         id="glyph68" />
      <glyph
         glyph-name="V"
         unicode="V"
         d="M14 68h18v-13h-6l6 -28l7 28h-6v13h27v-13h-7l-14 -55h-13l-14 55h-7v13h9z"
         id="glyph70" />
      <glyph
         glyph-name="W"
         unicode="W"
         horiz-adv-x="78"
         d="M46 62v6h27v-13h-7l-7 -41h7v-14h-26v14h6l-7 19l-7 -19h6v-14h-26v14h7l-7 41h-7v13h27v-13h-7l3 -16l9 22h5l8 -22l3 16h-7v7z"
         id="glyph72" />
      <glyph
         glyph-name="X"
         unicode="X"
         d="M5 68h26v-13h-6l7 -11l7 11h-6v13h26v-13h-6l-14 -21l14 -20h6v-14h-26v14h6l-7 10l-7 -10h6v-14h-26v14h7l13 20l-13 21h-7v13z"
         id="glyph74" />
      <glyph
         glyph-name="Y"
         unicode="Y"
         d="M5 63v5h27v-13h-6l6 -11l7 11h-6v13h27v-13h-7l-14 -21v-20h7v-14h-27v14h7v20l-14 21h-7v8z"
         id="glyph76" />
      <glyph
         glyph-name="Z"
         unicode="Z"
         horiz-adv-x="57"
         d="M5 68h48v-13l-31 -41h17v7h14v-21h-48v14l31 41h-17v-7h-14v20z"
         id="glyph78" />
      </font>
</defs>
</svg>
